<?xml version="1.0" standalone="no"?>
<!DOCTYPE svg PUBLIC "-//W3C//DTD SVG 20010904//EN"
 "http://www.w3.org/TR/2001/REC-SVG-20010904/DTD/svg10.dtd">

<svg xmlns="http://www.w3.org/2000/svg" xmlns:xlink="http://www.w3.org/1999/xlink" version="1.1" x="0px" y="0px" viewBox="0 0 99.473 157.5" style="enable-background:new 0 0 99.473 126;" xml:space="preserve">

<g transform="translate(0.000000,2245.000000) scale(0.100000,-0.100000)"
fill="#000000" stroke="none">
<path d="M6110 17984 c-383 -49 -577 -103 -865 -244 -559 -273 -998 -776
-1198 -1372 -70 -207 -104 -384 -117 -612 -33 -591 128 -1122 484 -1596 87
-116 301 -333 416 -422 330 -255 707 -418 1115 -484 155 -25 493 -30 640 -10
465 65 850 225 1202 503 110 87 337 320 421 434 258 349 419 762 463 1188 15
143 6 471 -15 601 -114 681 -477 1248 -1039 1623 -286 191 -619 318 -972 372
-97 15 -464 28 -535 19z m525 -147 c351 -58 621 -163 910 -353 521 -342 871
-884 982 -1519 28 -158 25 -569 -4 -731 -88 -484 -291 -875 -632 -1215 -368
-367 -796 -576 -1322 -645 -157 -20 -486 -15 -629 11 -486 87 -893 297 -1230
635 -344 344 -562 779 -637 1270 -24 158 -23 481 1 640 87 567 361 1052 801
1419 302 252 714 434 1095 485 63 9 129 18 145 20 64 9 434 -3 520 -17z"/>
<path d="M6070 17749 c-593 -66 -1137 -379 -1495 -859 -387 -521 -517 -1186
-355 -1819 156 -613 581 -1128 1155 -1402 321 -152 627 -216 990 -206 216 6
354 27 543 82 588 171 1087 600 1347 1158 23 51 46 102 49 114 7 23 7 23 -23
5 -28 -15 -33 -16 -58 -2 -17 10 -29 26 -31 41 -3 22 -7 25 -28 21 -29 -5 -54
13 -54 40 0 16 -4 18 -17 12 -10 -4 -35 -8 -57 -8 -75 0 -108 77 -67 156 17
33 17 38 2 52 -12 13 -13 20 -5 34 15 24 37 21 49 -5 7 -18 18 -23 46 -23 25
0 45 -8 63 -25 25 -23 27 -31 23 -73 -2 -26 -8 -57 -12 -69 -6 -18 -3 -23 9
-23 9 0 27 22 42 53 37 73 52 87 91 87 40 0 82 -37 84 -72 2 -57 51 143 74
307 19 132 19 413 0 562 -79 612 -425 1167 -945 1515 -118 79 -342 192 -470
237 -112 39 -268 78 -388 97 -118 18 -446 26 -562 13z m-447 -409 c14 -11 40
-56 59 -102 50 -120 52 -125 31 -131 -10 -2 -25 -8 -34 -11 -12 -5 -23 13 -53
88 -41 103 -59 120 -101 92 -34 -22 -32 -57 5 -152 17 -42 29 -77 28 -78 -14
-8 -61 -26 -63 -24 -6 8 -106 260 -103 262 2 1 16 7 31 14 23 10 29 9 33 -3 8
-21 21 -19 27 4 6 24 63 61 93 61 12 0 33 -9 47 -20z m-319 -141 c14 -7 46
-43 71 -81 29 -44 51 -68 60 -65 7 3 21 -3 31 -15 18 -19 18 -20 -6 -40 -15
-12 -34 -18 -51 -16 -21 3 -28 -1 -36 -23 -24 -62 -109 -82 -150 -35 -36 42
-30 76 23 135 47 52 52 81 16 81 -21 0 -57 -34 -69 -66 -6 -17 -12 -20 -30
-13 -14 5 -23 17 -23 29 0 28 66 98 104 109 17 5 32 10 33 10 1 1 13 -4 27
-10z m-294 -79 c17 -33 -4 -62 -43 -58 -25 2 -33 8 -35 26 -7 48 56 73 78 32z
m116 -152 c43 -51 84 -100 91 -109 12 -15 10 -19 -15 -38 l-30 -21 -86 104
c-47 58 -86 109 -86 114 0 7 35 38 47 41 1 1 37 -41 79 -91z m-164 -15 c18
-16 18 -17 -9 -45 l-27 -28 54 -55 c30 -30 60 -55 67 -55 7 0 20 11 29 24 13
22 19 23 40 14 33 -15 30 -34 -10 -74 -53 -53 -83 -48 -162 27 -52 51 -66 60
-78 50 -11 -9 -20 -10 -35 -1 -24 12 -25 14 -10 42 9 17 8 23 -5 30 -21 12
-20 27 4 58 l19 25 24 -23 23 -22 24 25 c28 30 28 30 52 8z m1830 -44 c24 -12
60 -35 81 -52 51 -39 132 -156 153 -219 l16 -50 42 40 c48 46 69 58 124 70 58
13 65 5 66 -80 0 -62 -4 -81 -27 -122 -15 -27 -26 -50 -25 -51 2 -1 25 -9 52
-18 52 -18 150 -87 160 -114 4 -8 1 -22 -5 -29 -20 -25 -122 -56 -187 -57
l-62 0 24 -26 c53 -58 60 -111 32 -258 -18 -93 -16 -104 49 -258 67 -160 61
-238 -37 -448 -45 -97 -51 -119 -57 -200 -8 -93 -18 -125 -53 -164 -20 -22
-20 -22 1 -44 29 -32 26 -61 -11 -107 -18 -22 -55 -67 -81 -101 -52 -65 -143
-138 -221 -178 -54 -27 -171 -58 -258 -68 -57 -6 -58 -7 -77 -50 -12 -26 -33
-53 -53 -65 -29 -19 -44 -21 -118 -16 -214 12 -556 126 -671 224 -36 30 -54
92 -40 134 15 43 16 40 -34 78 -35 26 -45 40 -45 62 0 71 -68 183 -140 231
-58 38 -66 62 -80 242 -8 98 -7 113 9 135 10 14 30 26 44 28 28 3 28 4 42 147
26 256 207 599 376 712 35 23 36 26 42 102 7 92 37 179 78 226 18 21 52 41 91
55 94 34 139 63 177 114 68 91 142 117 228 81 36 -15 36 -15 78 24 55 51 86
70 137 87 55 18 125 11 180 -17z m-1984 -162 c3 -21 -2 -29 -22 -37 -14 -5
-30 -18 -35 -29 -29 -54 4 -62 64 -17 55 42 97 47 132 14 50 -47 16 -143 -63
-184 -35 -17 -39 -22 -25 -31 14 -10 14 -13 -5 -39 -12 -16 -30 -30 -42 -32
-18 -3 -20 -7 -11 -29 13 -34 -16 -93 -53 -111 -23 -10 -33 -10 -63 2 -48 21
-59 53 -41 123 16 62 13 83 -15 83 -24 0 -39 -30 -39 -80 0 -39 -1 -41 -27
-38 -31 3 -39 27 -28 84 8 43 64 104 96 104 13 0 56 -17 96 -37 61 -32 74 -35
88 -23 11 9 14 22 10 40 -5 24 -2 29 20 34 33 8 65 41 65 66 0 28 -32 26 -68
-5 -62 -52 -114 -52 -148 0 -29 44 0 119 61 156 37 23 49 20 53 -14z m-180
-502 c20 -9 47 -25 59 -37 44 -42 38 -129 -11 -164 -16 -11 -18 -16 -8 -23 13
-8 8 -56 -7 -65 -6 -4 -310 86 -367 108 -10 4 -11 12 -3 36 13 35 18 36 92 11
l56 -20 -5 43 c-7 47 12 97 43 115 27 16 109 13 151 -4z m-101 -337 c-4 -18
-9 -61 -13 -95 -6 -58 -5 -63 13 -63 43 0 71 60 48 104 -14 26 -14 31 1 53 15
23 17 24 34 8 60 -54 41 -183 -32 -221 -44 -23 -134 -15 -176 15 -61 43 -67
147 -12 203 25 24 36 28 85 28 l57 0 -5 -32z m3843 -92 c0 -43 -2 -44 -160
-48 l-125 -3 -3 37 -3 37 108 4 c59 1 125 4 146 5 36 2 37 1 37 -32z m-336 8
c9 -8 16 -22 16 -29 0 -7 -7 -21 -16 -29 -8 -9 -22 -16 -29 -16 -7 0 -21 7
-29 16 -9 8 -16 22 -16 29 0 7 7 21 16 29 8 9 22 16 29 16 7 0 21 -7 29 -16z
m114 -146 c2 -20 10 -42 18 -49 9 -7 56 -16 105 -19 49 -4 91 -8 93 -11 2 -2
1 -18 -1 -36 l-5 -32 -117 5 c-162 7 -161 7 -161 50 0 31 3 36 20 31 20 -5 20
-5 0 20 -19 24 -27 73 -14 85 3 3 17 3 32 -1 22 -6 28 -14 30 -43z m-3547 -57
c37 -37 43 -116 13 -173 -17 -33 -18 -33 -48 -11 -22 17 -22 17 -4 52 22 42
22 52 4 76 -12 16 -16 17 -30 6 -9 -8 -19 -32 -23 -55 -7 -43 -49 -96 -77 -96
-36 0 -68 22 -83 57 -18 44 -13 118 11 141 14 14 17 14 35 -2 16 -15 18 -23
10 -38 -6 -10 -9 -33 -7 -51 2 -24 8 -32 23 -32 15 0 22 11 31 50 16 69 22 81
47 93 38 18 67 13 98 -17z m3625 -162 c84 -22 125 -90 103 -172 -30 -113 -167
-141 -256 -52 -28 28 -33 40 -33 80 0 76 36 133 95 148 33 8 44 7 91 -4z
m-392 -525 c9 -8 16 -20 16 -25 0 -24 -22 -49 -43 -49 -47 0 -63 48 -25 74 28
20 33 20 52 0z m299 -164 c5 -4 2 -21 -7 -38 l-15 -30 -121 63 c-67 35 -124
65 -126 68 -3 3 2 19 10 36 l16 31 118 -62 c64 -33 121 -64 125 -68z m-263
-56 l24 -77 93 6 c51 4 93 4 93 1 0 -3 -8 -19 -17 -35 -15 -26 -23 -29 -68
-30 -27 -1 -63 -4 -80 -8 l-30 -6 48 -30 c52 -33 55 -40 29 -73 l-17 -22 -163
110 c-89 61 -162 115 -162 119 0 5 8 19 18 31 l19 23 91 -62 c51 -34 92 -58
92 -53 0 5 -9 35 -20 67 -19 54 -19 59 -3 86 10 16 20 29 23 29 4 0 17 -34 30
-76z m-167 -215 c12 -6 45 -34 74 -62 40 -38 55 -48 65 -39 9 7 18 7 31 -3 36
-26 -8 -84 -54 -72 -16 4 -19 0 -19 -25 0 -40 -15 -65 -50 -83 -40 -21 -54
-19 -89 11 -39 32 -41 73 -6 129 30 50 33 85 6 85 -25 0 -61 -45 -61 -76 0
-20 -5 -24 -30 -24 -24 0 -30 4 -30 22 0 37 40 106 73 127 36 23 59 26 90 10z
m-271 -188 l-3 -109 53 -15 c29 -9 82 -23 118 -32 36 -9 66 -18 68 -20 2 -2
-12 -14 -30 -28 l-33 -25 -99 24 c-55 13 -102 22 -104 19 -3 -2 13 -28 35 -57
57 -76 56 -74 24 -97 l-29 -21 -104 137 c-130 172 -124 160 -102 184 27 29 40
24 86 -38 l43 -57 7 50 c3 27 7 71 7 98 1 36 7 56 23 73 38 41 43 31 40 -86z"/>
<path d="M5300 17052 c-41 -50 -42 -50 -30 -71 13 -26 42 -27 63 -3 20 22 21
33 5 67 -13 30 -19 31 -38 7z"/>
<path d="M6273 16787 c-13 -7 -52 -44 -87 -83 -62 -68 -84 -82 -188 -119 -57
-20 -103 -69 -118 -126 -16 -59 -32 -161 -26 -166 13 -13 74 48 121 122 66
102 120 150 188 165 96 23 153 57 202 120 25 32 45 61 45 65 0 10 -67 35 -92
35 -13 -1 -33 -6 -45 -13z"/>
<path d="M6637 16758 c-38 -31 -48 -62 -22 -72 19 -7 85 50 85 74 0 30 -24 29
-63 -2z"/>
<path d="M6754 16625 c-8 -54 -1 -75 25 -75 15 0 20 10 26 50 8 55 2 70 -25
70 -15 0 -20 -10 -26 -45z"/>
<path d="M6517 16565 c-40 -28 -43 -35 -26 -52 14 -14 95 22 104 45 15 38 -26
42 -78 7z"/>
<path d="M6886 16582 c-8 -13 14 -85 30 -102 12 -12 16 -12 28 0 21 22 -6 110
-34 110 -10 0 -21 -4 -24 -8z"/>
<path d="M6180 16550 c-81 -24 -96 -37 -156 -127 -66 -98 -98 -130 -188 -190
-127 -84 -200 -175 -296 -375 -62 -127 -99 -269 -107 -409 l-6 -106 75 -75
c236 -236 663 -414 1102 -458 177 -18 410 4 473 45 46 31 75 99 83 198 7 81
14 105 58 202 63 137 86 221 77 284 -4 25 -29 101 -56 167 -53 132 -57 160
-34 264 17 78 19 144 5 171 -12 22 -30 25 -30 5 0 -7 -21 -31 -46 -51 l-46
-38 7 -79 c6 -65 4 -83 -10 -105 -13 -19 -19 -52 -21 -117 -4 -106 -32 -221
-54 -221 -17 0 -17 5 4 100 9 39 16 100 16 136 0 57 -3 68 -25 87 -14 12 -39
53 -56 92 -29 64 -49 84 -63 61 -3 -5 -15 -51 -25 -103 -12 -58 -28 -108 -43
-130 -34 -50 -52 -142 -45 -233 4 -60 3 -75 -9 -75 -30 0 -39 135 -15 232 14
56 14 57 -13 80 -21 18 -32 48 -56 143 -30 118 -45 145 -80 145 -31 0 -62 -33
-135 -145 -52 -79 -84 -117 -105 -127 -23 -10 -31 -21 -36 -48 -21 -124 -93
-310 -120 -310 -20 0 -17 16 17 88 33 70 69 197 69 242 0 15 -7 41 -15 56 -18
35 -14 63 26 194 16 52 29 106 29 120 0 33 -32 50 -93 50 -23 1 -59 7 -80 15
l-39 13 -36 -40 c-54 -59 -110 -154 -132 -226 -11 -35 -20 -70 -20 -77 0 -18
-19 -30 -31 -18 -13 13 16 116 57 200 20 39 59 98 88 130 29 32 56 72 60 88 4
17 31 71 60 120 56 98 80 149 75 163 -2 5 -29 1 -59 -8z"/>
<path d="M6814 16487 c-8 -22 15 -97 32 -104 30 -11 39 13 23 64 -15 48 -44
69 -55 40z"/>
<path d="M6627 16474 c-10 -11 -8 -47 4 -83 9 -24 16 -31 33 -29 17 2 20 9 18
33 -6 55 -36 98 -55 79z"/>
<path d="M6347 16453 c-3 -5 -8 -29 -12 -54 -7 -48 8 -76 34 -60 20 12 27 101
10 112 -17 11 -26 11 -32 2z"/>
<path d="M7150 16404 c-88 -30 -100 -37 -100 -54 0 -41 107 -90 195 -90 45 0
131 26 141 42 8 12 -35 50 -86 77 -36 19 -124 34 -150 25z"/>
<path d="M6770 16331 c0 -27 48 -81 71 -81 27 0 24 27 -7 67 -28 37 -64 45
-64 14z"/>
<path d="M6454 16275 c-8 -54 0 -78 23 -73 12 2 21 18 27 45 10 50 3 73 -23
73 -16 0 -21 -9 -27 -45z"/>
<path d="M6940 16232 c0 -26 58 -92 75 -85 22 8 18 32 -11 70 -27 36 -64 45
-64 15z"/>
<path d="M6702 16210 c-45 -20 -55 -51 -20 -58 28 -5 93 31 93 53 0 26 -21 28
-73 5z"/>
<path d="M5353 15343 c-7 -2 -13 -16 -13 -30 0 -34 144 -177 250 -249 232
-159 569 -286 898 -341 202 -33 527 -18 615 28 20 11 23 55 4 62 -7 2 -46 -4
-87 -15 -109 -29 -357 -36 -510 -14 -302 44 -612 159 -848 312 -47 30 -130
100 -187 155 -56 54 -104 99 -106 98 -2 0 -10 -3 -16 -6z"/>
<path d="M5646 14603 c-11 -27 -6 -68 9 -90 21 -30 159 -104 265 -143 173 -63
430 -111 483 -91 27 10 52 39 61 67 6 20 1 22 -103 32 -196 20 -426 91 -608
187 -82 43 -103 51 -107 38z"/>
<path d="M4695 16396 c-9 -46 -3 -70 18 -74 42 -8 64 51 30 80 -36 30 -42 30
-48 -6z"/>
<path d="M4500 16170 c-27 -27 -25 -56 4 -85 53 -53 146 -38 146 25 0 65 -103
107 -150 60z"/>
<path d="M4432 15864 c-28 -19 -29 -65 -2 -89 26 -24 32 -16 38 50 5 58 0 64
-36 39z"/>
<path d="M8116 15368 c-39 -56 2 -108 85 -108 54 0 69 15 69 69 0 24 -7 34
-30 46 -45 23 -106 20 -124 -7z"/>
<path d="M7708 14359 c-23 -40 -23 -66 2 -79 15 -8 24 -6 40 10 26 26 25 43
-2 75 l-23 26 -17 -32z"/>
<path d="M8016 15058 c-20 -28 -20 -33 0 -52 25 -25 63 -20 76 10 11 23 10 29
-11 45 -30 25 -46 24 -65 -3z"/>
<path d="M8255 14997 c-8 -13 -20 -38 -26 -56 -10 -27 -9 -35 4 -49 15 -14 18
-14 37 3 29 26 47 90 30 110 -17 21 -27 19 -45 -8z"/>
</g>
</svg>
