<svg xmlns="http://www.w3.org/2000/svg" xmlns:xlink="http://www.w3.org/1999/xlink" version="1.1" x="0px" y="0px" viewBox="0 0 99.473 157.5" style="enable-background:new 0 0 99.473 126;" xml:space="preserve"><g><path d="M96.289,77.502c0.295-1.907,0.468-3.979-0.785-5.787c-0.611-0.884-0.908-2.017-0.834-3.19   c0.312-4.992-0.937-7.19-2.432-8.646c2.068-2.633,2.547-6.901-0.565-10.53c-2.741-3.199-3.024-4.767-3.274-6.15   c-0.355-1.966-0.804-3.347-4.033-5.945c-0.663-0.534-0.669-1.564-0.393-2.297c1.646-4.372-0.877-7.482-2.904-9.981   c-1.427-1.76-2.759-3.84-4.071-6.358c-2.76-5.296-5.795-6.642-7.485-6.955c0.51-1.14,0.262-1.997-0.045-2.516   c-0.854-1.447-3.053-1.891-4.134-2.025c-0.642-0.999-1.717-1.853-3.245-2.304c0.124-1.758-0.995-3.427-2.704-3.994   c-0.676-0.225-2.768-0.643-4.895,1.615c-0.768-1.318-2.239-2.234-4.121-2.41c-2.081-0.195-4.349,0.618-5.151,2.508   c-0.672,0.016-1.298,0.123-1.869,0.31c-0.901-1.149-2.116-1.797-3.449-1.797c-0.029,0-0.06,0-0.09,0.001   c-1.503,0.032-2.905,0.895-3.573,2.196c-0.486,0.946-0.532,2.006-0.158,3.027c-0.373,0.22-0.738,0.48-1.079,0.821   c-0.589,0.589-0.939,1.307-1.094,2.072c-1.167,0.601-3.908,2.4-5.563,6.659c-0.557,1.432-1.325,2.589-2.283,3.438   c-1.679,1.487-3.881,3.907-4.841,6.995c-0.433,1.394-1.071,2.581-1.899,3.528c-0.137,0.157-0.691,0.417-1.138,0.626   c-2.137,1.002-6.114,2.866-5.259,9.711c0.494,3.953-0.904,4.835-2.522,5.857c-0.891,0.562-1.899,1.198-2.496,2.346   C5.913,52.159,5.959,55.088,6,57.673c0.051,3.249,0.095,6.055-3.869,10.349c-0.755,0.819-1.517,2.396-1.388,4.365   c0.122,1.859,0.984,3.693,2.557,5.474c-1.862,1.495-3.169,4.236-3.288,7.097c-0.281,6.816,4.036,19.201,20.267,28.382   C22.913,120.7,35.247,126,49.916,126c14.695,0,27.047-5.318,29.65-12.698c13.598-7.779,19.276-18.182,19.86-26.372   C99.733,82.626,98.534,79.122,96.289,77.502z M67.746,10.164c0.04,0.069,0.147,0.252-0.07,0.717   c-0.377,0.801-0.392,1.326-0.307,1.839c0.001,0.01-0.003,0.02-0.001,0.031c0.002,0.013,0.011,0.022,0.013,0.035   c0.017,0.092,0.03,0.183,0.051,0.277c0.022,0.102,0.048,0.21,0.068,0.335c0.135,0.802,0.056,1.242-0.404,1.579   c-0.184-0.609-0.472-1.217-0.874-1.805c-0.316-0.461-0.702-0.868-1.145-1.212c0.534-0.601,0.852-1.313,0.949-2.05   c0.027-0.203,0.019-0.413,0.012-0.621C66.796,9.477,67.517,9.775,67.746,10.164z M36.898,17.617   c-0.599,0.182-1.423,0.288-1.95-0.254c-0.437-0.448-0.57-1.227-0.333-1.937c0.128-0.382,0.46-1.005,1.291-1.279   c0.924,0.79,1.94,1.238,2.986,1.303c0.201,0.755,0.6,1.372,1.172,1.808c-0.09,0.297-0.17,0.642-0.225,1.026   C38.892,17.732,37.839,17.33,36.898,17.617z M45.391,4.522c2.665,0,3.276,0.91,3.417,1.706c0.006,0.05,0.009,0.097,0.023,0.146   c0.021,0.185,0.022,0.359,0.022,0.51c0,0.642-0.399,1.234-1.034,1.665c-0.234,0.1-0.466,0.228-0.698,0.359   c-0.514,0.209-1.102,0.338-1.729,0.338c-0.467,0-2.437-0.055-3.177-0.937c-0.011-0.016-0.025-0.032-0.036-0.048   c-0.153-0.201-0.248-0.44-0.248-0.731C41.93,5.31,43.794,4.522,45.391,4.522z M57.016,10.769c1.427,0.931,2.58,2.586,1.907,3.821   c-0.234,0.433-0.747,0.77-1.406,0.927c-1.019,0.242-2.182,0.02-3.043-0.578c-0.259-0.179-0.486-0.374-0.691-0.576   c0.273-0.501,0.419-0.975,0.483-1.369c0.039-0.24,0.042-0.481,0.038-0.721c0.988-0.353,1.794-0.94,2.358-1.706   C56.779,10.631,56.897,10.692,57.016,10.769z M46.452,14.973c-0.303-0.388-0.409-0.992-0.29-1.659   c0.182-1.026,0.846-2.004,1.734-2.558c0.27-0.112,0.525-0.242,0.766-0.387c0.456-0.19,0.934-0.316,1.397-0.316   c0.646,0,1.256,0.23,1.716,0.817c0.433,0.551,0.616,1.192,0.517,1.803c-0.122,0.754-0.667,1.47-1.573,2.069h-0.001   C49.295,15.681,47.317,16.081,46.452,14.973z M54.598,5.886C55.33,6.342,55.7,7.312,55.518,8.3   c-0.086,0.471-0.433,1.496-1.726,2.028c-0.128-0.238-0.27-0.471-0.443-0.692c-0.692-0.883-1.65-1.387-2.721-1.523   c0.144-0.39,0.224-0.801,0.224-1.228c0-0.098-0.004-0.198-0.009-0.298C52.352,5.592,53.703,5.329,54.598,5.886z M43.26,11.014   c0.473,0.11,0.998,0.172,1.555,0.201c-0.299,0.546-0.514,1.137-0.623,1.749c-0.138,0.778-0.074,1.509,0.14,2.163   c-0.454,0.594-1.495,0.983-2.369,0.827c-0.557-0.097-0.91-0.389-1.088-0.86c0.457-0.21,0.886-0.495,1.257-0.867   C43.008,13.353,43.372,12.218,43.26,11.014z M41.973,19.924c-0.315-0.519-0.199-1.343-0.026-1.971   c0.143,0.014,0.286,0.037,0.429,0.037c1.166,0,2.306-0.455,3.104-1.186c0.546,0.43,1.216,0.677,1.947,0.774   c-0.234,1.624,0.233,2.758,0.739,3.459c0.703,0.973,1.815,1.606,3.055,1.77c-0.32,0.454-0.825,0.662-1.178,0.754   c-1.096,0.281-2.575-0.038-3.156-1.066c-0.635-1.123-1.857-1.833-3.27-1.902C42.77,20.552,42.218,20.327,41.973,19.924z    M51.855,20.852c-0.836,0-1.629-0.378-2.068-0.986c-0.437-0.606-0.522-1.445-0.29-2.429c0.773-0.194,1.561-0.523,2.323-1.026   c0.252-0.166,0.473-0.337,0.677-0.509c0.256,0.241,0.532,0.47,0.838,0.682c0.331,0.23,0.692,0.408,1.064,0.563   c0.229,1.222,0.122,2.198-0.357,2.813C53.412,20.765,52.304,20.852,51.855,20.852z M56.498,17.601   c0.058,0.002,0.115,0.013,0.173,0.013c0.326,0,0.651-0.037,0.973-0.092c0.225,0.54,0.512,1.066,0.865,1.548   c0.157,0.214,0.316,0.407,0.477,0.583c-0.428,0.292-0.859,0.461-1.289,0.47c-0.542,0.017-1.019-0.201-1.351-0.41   C56.518,19.083,56.571,18.379,56.498,17.601z M60.122,17.888c-0.252-0.343-0.444-0.715-0.606-1.093   c0.493-0.333,0.893-0.751,1.163-1.249c0.333-0.613,0.447-1.288,0.404-1.976c0.828-0.027,1.547-0.171,2.165-0.404   c0.54,0.274,0.996,0.658,1.323,1.135c1.079,1.576,1.02,3.196-0.154,4.227c-0.664,0.584-1.43,0.862-2.17,0.782   C61.476,19.226,60.741,18.734,60.122,17.888z M64.043,9.649c-0.084,0.646-0.484,1.144-1.105,1.477   c-0.085,0.028-0.16,0.068-0.234,0.117c-0.589,0.252-1.35,0.365-2.231,0.327c-0.51-0.918-1.302-1.783-2.365-2.477   c-0.128-0.083-0.257-0.147-0.386-0.22c2.007-0.451,3.099-1.334,3.686-2.177C63.303,7.213,64.189,8.538,64.043,9.649z M58.755,2.721   c0.849,0.282,1.426,1.142,1.343,2c-0.096,0.991-1.067,1.761-2.639,2.156c-0.231-1.116-0.862-2.103-1.803-2.689   c-0.007-0.004-0.015-0.008-0.022-0.013C56.646,2.938,57.768,2.393,58.755,2.721z M50.184,2.02c1.057,0.099,2.234,0.589,2.691,1.612   c-0.746,0.096-1.613,0.377-2.595,0.946c-0.485-0.816-1.341-1.504-2.781-1.837C48.132,2.166,49.19,1.93,50.184,2.02z M38.017,4.16   c0.332-0.647,1.07-1.093,1.837-1.11c0.624-0.028,1.216,0.261,1.712,0.788c-0.723,0.625-1.227,1.449-1.467,2.415   c-0.604-0.353-1.231-0.546-1.876-0.57c-0.074-0.003-0.146,0.015-0.22,0.017C37.773,5.16,37.772,4.635,38.017,4.16z M36.414,8.509   c0.382-0.382,0.978-0.829,1.674-0.829c0.021,0,0.041,0,0.061,0.001c0.658,0.024,1.345,0.446,2.039,1.252   c0.079,0.092,0.152,0.191,0.226,0.289c0.056,0.09,0.122,0.175,0.188,0.26c0.727,1.076,1.063,2.386,0.117,3.332   c-0.437,0.437-0.975,0.667-1.557,0.667c-0.002,0-0.004,0-0.007,0c-0.763-0.002-1.55-0.391-2.275-1.125   C35.638,11.099,35.441,9.481,36.414,8.509z M3.601,69.379c4.507-4.882,4.452-8.367,4.398-11.737   c-0.038-2.462-0.078-5.009,1.681-8.393c0.347-0.667,1.015-1.089,1.788-1.577c1.822-1.15,4.092-2.583,3.439-7.796   c-0.675-5.403,1.985-6.65,4.123-7.652c0.742-0.348,1.383-0.648,1.797-1.123c0.269-0.308,0.518-0.638,0.753-0.984   c2.156,4.703,6.389,7.262,12.615,7.616c1.706,0.097,2.528,0.929,3.665,2.082c1.484,1.503,3.331,3.375,7.651,3.668   c0.023,0.001,0.047,0.002,0.069,0.002c0.521,0,0.961-0.404,0.997-0.932c0.037-0.551-0.379-1.028-0.93-1.065   c-3.565-0.243-4.988-1.685-6.364-3.078c-1.229-1.246-2.501-2.533-4.976-2.674c-6.134-0.349-9.896-2.972-11.499-8.002   c0.112-0.289,0.225-0.577,0.32-0.882c0.822-2.646,2.769-4.773,4.257-6.091c1.198-1.062,2.147-2.479,2.82-4.21   c1.112-2.859,2.746-4.385,3.828-5.134c0.122,0.394,0.302,0.781,0.526,1.158c-0.862,0.482-1.518,1.249-1.841,2.218   c-0.477,1.424-0.163,2.981,0.797,3.967c0.557,0.57,1.809,1.432,3.967,0.771c0.372-0.114,1.286,0.365,2.724,1.415l0.09,0.066   c0.433,0.684,1.338,1.49,3.225,1.58c0.712,0.034,1.334,0.375,1.624,0.888c0.852,1.508,2.561,2.174,4.126,2.174   c0.442,0,0.875-0.053,1.272-0.156c1.537-0.398,2.581-1.467,2.883-2.869c0.767-0.227,1.433-0.623,1.944-1.162   c0.561,0.335,1.342,0.658,2.282,0.658c0.018,0,0.035,0,0.052,0c1.041-0.013,2.021-0.44,2.931-1.229   c0.512,0.241,0.994,0.36,1.394,0.404c0.157,0.017,0.314,0.026,0.473,0.026c1.142,0,2.274-0.45,3.235-1.293   c0.895-0.786,1.4-1.803,1.54-2.902c1.23-0.509,2.348-1.424,2.247-3.416c1.251,0.354,3.489,1.587,5.699,5.829   c1.375,2.639,2.779,4.829,4.292,6.694c2.241,2.763,3.738,4.955,2.586,8.016c-0.648,1.72-0.243,3.553,1.01,4.561   c2.881,2.317,3.064,3.334,3.318,4.742c0.281,1.553,0.63,3.485,3.726,7.097c2.6,3.033,1.842,6.204,0.552,7.938   c-0.853-0.669-1.591-1.278-2.046-2.305c-0.224-0.505-0.815-0.735-1.318-0.51c-0.506,0.224-0.733,0.814-0.51,1.319   c0.681,1.539,1.792,2.409,2.773,3.176c1.753,1.372,3.408,2.667,3.066,8.13c-0.102,1.62,0.319,3.201,1.186,4.454   c0.946,1.366,0.653,3.142,0.344,5.022c-0.219,1.328-0.445,2.701-0.233,4.01c0.202,1.242-0.058,2.475-0.731,3.472   c-0.688,1.016-2.066,1.969-4.153,3.411c-1.387,0.958-3.112,2.15-5.145,3.722c-2.197,1.698-4.381,2.499-7.787,2.854   c-2.524,0.264-4.322,0.855-5.908,1.377c-1.42,0.467-2.755,0.901-4.492,1.068c0.383-0.359,0.729-0.746,1.078-1.141   c1.482-1.682,3.163-3.588,9.362-4.608c5.735-1.277,6.725-4.345,7.519-6.81c0.689-2.138,1.187-3.683,4.309-4.421   c0.537-0.127,0.87-0.666,0.742-1.204c-0.127-0.538-0.667-0.869-1.203-0.743c-4.219,0.998-5.033,3.525-5.751,5.754   c-0.769,2.384-1.432,4.443-5.995,5.46c-6.848,1.125-8.863,3.411-10.482,5.249c-1.172,1.329-1.956,2.209-4.6,2.249   c-1.081-0.163-2.292-0.4-3.666-0.73c-2.499-0.6-5.083-0.877-7.645-0.839c-2.547,0.044-5.544,0.172-8.051,0.282   c-5.136-0.149-7.576-2.014-9.728-3.661c-2.118-1.621-4.117-3.151-7.868-2.617c-0.547,0.078-0.927,0.584-0.849,1.131   c0.078,0.546,0.581,0.926,1.132,0.848c2.914-0.416,4.364,0.692,6.369,2.227c1.39,1.063,2.992,2.282,5.343,3.11   c-0.127,0.06-0.259,0.111-0.382,0.176c-3.896,2.081-15.036,1.864-20.891-2.317C8.488,90.894,6.3,86.633,7.524,81.518   c1.142,0.826,2.106,1.429,2.943,1.953c2.288,1.431,3.437,2.15,4.745,5.362c0.157,0.388,0.531,0.623,0.926,0.623   c0.126,0,0.254-0.024,0.377-0.074c0.512-0.208,0.758-0.792,0.549-1.304c-1.552-3.811-3.137-4.802-5.536-6.303   c-1.286-0.804-2.886-1.805-4.972-3.543c-2.37-1.975-3.689-4.041-3.816-5.975C2.623,70.494,3.501,69.488,3.601,69.379z    M97.431,86.788c-0.684,9.584-8.955,22.46-30.123,29.853c-0.521,0.182-0.796,0.752-0.614,1.273   c0.145,0.413,0.531,0.671,0.944,0.671c0.109,0,0.221-0.018,0.33-0.057c3.063-1.07,5.858-2.257,8.419-3.531   C72.4,120.277,61.857,124,49.916,124c-11.918,0-22.443-3.708-26.448-8.972c2.541,1.252,5.326,2.429,8.396,3.501   c0.109,0.039,0.221,0.057,0.33,0.057c0.413,0,0.8-0.258,0.944-0.671c0.182-0.521-0.093-1.092-0.614-1.274   c-4.141-1.446-7.749-3.081-10.902-4.832c-0.039-0.025-0.076-0.047-0.118-0.066c-15.6-8.71-19.756-20.331-19.494-26.701   c0.11-2.657,1.387-4.793,2.721-5.756c0.18,0.161,0.351,0.323,0.542,0.483c0.185,0.154,0.361,0.295,0.539,0.439   c-1.884,6.306,0.509,11.598,7.521,16.607c3.881,2.772,9.73,3.949,14.76,3.949c3.412,0,6.448-0.542,8.234-1.496   c1.011-0.54,2.17-0.852,3.351-0.903l1.28-0.056c2.587-0.114,5.807-0.256,8.495-0.302c2.422-0.038,4.81,0.223,7.145,0.783   c7.954,1.911,11.022,0.901,14.271-0.168c1.563-0.515,3.18-1.046,5.49-1.288c3.765-0.393,6.315-1.338,8.803-3.261   c1.991-1.539,3.691-2.714,5.059-3.658c2.273-1.571,3.775-2.608,4.673-3.936c0.961-1.421,1.334-3.166,1.05-4.913   c-0.083-0.514-0.07-1.076-0.011-1.667C97.066,81.359,97.64,83.859,97.431,86.788z"/><path d="M53.711,35.157c1.878-0.642,3.821-1.307,6.337-0.448c6.123,2.091,9.275-1.43,10.971-3.321   c0.3-0.335,0.565-0.634,0.811-0.857c0.409-0.371,0.439-1.003,0.068-1.413c-0.371-0.41-1.004-0.44-1.412-0.069   c-0.305,0.277-0.621,0.63-0.956,1.004c-1.675,1.869-3.969,4.425-8.835,2.763c-3.159-1.08-5.639-0.232-7.631,0.448   c-2.532,0.867-4.206,1.439-6.74-1.377c-0.37-0.411-1.002-0.444-1.412-0.075c-0.41,0.37-0.444,1.002-0.074,1.413   c1.896,2.109,3.596,2.754,5.191,2.754C51.306,35.979,52.518,35.565,53.711,35.157z"/><path d="M28.747,58.976c1.47,0,2.954-0.378,4.469-0.764c2.501-0.637,5.337-1.359,8.739-0.551c5.345,1.268,7.924-1.223,10.2-3.421   c2.25-2.173,4.373-4.227,9.275-3.354c4.446,0.793,6.212-1.465,7.502-3.112c1.114-1.423,1.784-2.283,3.745-1.803   c1.401,0.344,2.484,0.266,3.303-0.239c1.169-0.719,1.48-2.06,1.781-3.357c0.341-1.468,0.662-2.854,2.103-3.503   c0.503-0.227,0.728-0.819,0.501-1.322c-0.227-0.503-0.816-0.73-1.323-0.501c-2.343,1.055-2.854,3.262-3.229,4.874   c-0.218,0.938-0.424,1.824-0.881,2.105c-0.418,0.257-1.199,0.142-1.78,0c-3.217-0.79-4.644,1.043-5.794,2.512   c-1.243,1.586-2.31,2.955-5.578,2.376c-5.911-1.049-8.62,1.572-11.015,3.885c-2.273,2.196-4.075,3.929-8.348,2.914   c-3.884-0.922-6.971-0.135-9.695,0.559c-4.009,1.021-6.659,1.697-9.95-3.789c-0.284-0.473-0.897-0.628-1.372-0.343   c-0.474,0.284-0.627,0.898-0.343,1.372C23.64,57.817,26.172,58.976,28.747,58.976z"/><path d="M62.182,61.836c-2.234,0.8-5.013,1.793-9.745-0.174c-0.512-0.212-1.095,0.03-1.308,0.54c-0.212,0.51,0.03,1.095,0.54,1.307   c2.333,0.969,4.274,1.306,5.923,1.306c2.2,0,3.878-0.6,5.263-1.095c1.966-0.702,2.78-0.996,4.008,0.513   c0.349,0.428,0.979,0.494,1.407,0.144c0.428-0.349,0.492-0.979,0.144-1.407C66.295,60.367,64.204,61.114,62.182,61.836z"/><path d="M20.751,78.986c2.266,0.377,4.445,0.388,6.368,0.396c3.233,0.015,6.025,0.027,8.158,1.698   c0.11,0.1,0.436,0.531,0.723,0.911c1.688,2.234,5.545,7.337,10.681,7.336c1.488,0,3.084-0.429,4.765-1.479   c2.818-1.762,5.565-1.625,8.222-1.49c4.378,0.222,8.907,0.449,11.828-8.564c1.997-6.16,4.718-7.208,7.599-8.316   c3.122-1.203,6.352-2.446,7.653-9.963c0.094-0.544-0.271-1.062-0.814-1.156c-0.543-0.093-1.063,0.271-1.156,0.814   c-1.108,6.4-3.444,7.299-6.401,8.438c-1.848,0.712-3.844,1.489-5.641,3.566c-3.99-1.363-6.809,0.291-9.313,1.764   c-2.473,1.455-4.811,2.831-8.383,1.838c-8.693-2.408-11.787,1.445-11.915,1.61c-0.333,0.432-0.253,1.046,0.174,1.386   c0.183,0.146,0.4,0.216,0.618,0.216c0.293,0,0.583-0.126,0.782-0.368c0.1-0.121,2.525-2.936,9.806-0.917   c4.393,1.218,7.335-0.515,9.933-2.042c2.263-1.332,4.255-2.502,7.055-1.776c-0.688,1.133-1.329,2.533-1.898,4.289   c-2.449,7.554-5.538,7.4-9.825,7.184c-2.828-0.142-6.03-0.304-9.383,1.791c-5.227,3.266-9.397-0.88-12.789-5.367   c-0.551-0.729-0.806-1.061-1.071-1.268c-2.686-2.104-5.945-2.119-9.396-2.135c-1.938-0.008-3.941-0.018-6.049-0.369   c-3.21-0.535-5.881-2.007-7.325-4.038c-0.961-1.35-1.327-2.89-1.062-4.452c0.094-0.544-0.272-1.061-0.817-1.154   c-0.542-0.094-1.061,0.273-1.153,0.818c-0.358,2.098,0.127,4.154,1.402,5.947C13.875,76.596,17.02,78.364,20.751,78.986z"/></g></svg>