<?xml version="1.0" standalone="no"?>
<!DOCTYPE svg PUBLIC "-//W3C//DTD SVG 20010904//EN"
 "http://www.w3.org/TR/2001/REC-SVG-20010904/DTD/svg10.dtd">
<svg version="1.0" xmlns="http://www.w3.org/2000/svg"
 width="216.000000pt" height="216.000000pt" viewBox="0 0 216.000000 216.000000"
 preserveAspectRatio="xMidYMid meet">

<g transform="translate(0.000000,216.000000) scale(0.100000,-0.100000)"
fill="#000000" stroke="none">
<path d="M992 2148 c-7 -7 -37 -11 -71 -10 -33 1 -63 -3 -66 -8 -3 -6 -19 -10
-35 -10 -16 0 -32 -4 -35 -10 -3 -5 -16 -10 -29 -10 -12 0 -41 -9 -64 -20 -22
-11 -47 -20 -55 -20 -7 0 -23 -9 -35 -20 -12 -11 -26 -20 -33 -20 -6 0 -23 -8
-37 -18 -15 -10 -40 -24 -55 -32 -69 -35 -217 -183 -287 -288 -125 -186 -180
-369 -180 -602 0 -305 103 -556 316 -767 143 -142 302 -230 509 -282 100 -24
153 -31 248 -31 487 0 899 310 1044 785 26 86 27 100 27 295 0 195 -1 210 -27
295 -89 292 -287 533 -539 656 -35 17 -80 39 -101 50 -22 10 -49 19 -62 19
-13 0 -27 5 -30 10 -3 6 -19 10 -35 10 -16 0 -32 4 -35 10 -3 5 -35 9 -71 9
-36 -1 -71 4 -77 10 -15 15 -170 14 -185 -1z m261 -53 c203 -35 384 -126 533
-267 172 -165 279 -361 314 -581 18 -108 8 -332 -18 -430 -46 -168 -145 -338
-270 -462 -211 -210 -488 -317 -781 -302 -439 22 -807 318 -938 752 -25 84
-27 102 -27 275 0 173 2 191 27 275 59 194 147 336 292 473 114 107 225 175
370 224 171 58 332 72 498 43z"/>
<path d="M970 2054 c-135 -18 -327 -90 -437 -165 -130 -89 -270 -255 -339
-404 -63 -135 -79 -220 -79 -405 0 -141 3 -177 23 -249 96 -353 363 -613 722
-704 123 -31 340 -30 460 2 287 77 512 257 642 515 28 55 35 77 24 73 -10 -4
-24 1 -35 12 -11 11 -22 17 -25 14 -3 -3 -8 2 -12 11 -4 11 -13 15 -25 11 -24
-8 -63 31 -53 53 4 9 7 27 8 40 1 28 3 28 50 8 36 -15 38 -18 33 -51 -3 -19
-4 -35 -2 -35 2 0 12 16 24 35 23 39 36 43 62 19 17 -15 19 -13 31 28 8 28 13
103 13 213 0 147 -3 182 -23 254 -46 168 -124 304 -246 429 -183 189 -407 288
-666 297 -63 2 -131 1 -150 -1z m-188 -191 c17 -22 38 -69 38 -88 0 -30 -31
-13 -46 25 -16 40 -40 52 -50 26 -3 -7 2 -30 10 -51 19 -45 19 -42 0 -49 -11
-4 -21 8 -40 49 -29 67 -30 75 -5 75 10 0 24 7 31 15 17 20 44 19 62 -2z
m-123 -87 c12 -19 28 -37 36 -40 21 -8 18 -24 -6 -31 -12 -4 -30 -16 -40 -26
-23 -23 -33 -24 -53 -3 -21 21 -20 36 5 68 12 15 18 30 14 34 -4 4 -16 -4 -26
-17 -16 -19 -22 -22 -32 -12 -9 10 -6 18 16 37 38 33 61 30 86 -10z m-164 -17
c0 -7 -8 -15 -17 -17 -18 -3 -25 18 -11 32 10 10 28 1 28 -15z m59 -63 c20
-24 36 -48 36 -52 0 -9 -69 -74 -80 -74 -5 0 -23 12 -41 27 -18 15 -39 28 -47
28 -9 0 -16 11 -17 25 -3 31 9 57 19 41 5 -8 12 -7 26 1 24 15 38 3 23 -21
-10 -15 -8 -23 12 -41 20 -19 27 -21 39 -11 8 7 20 10 26 6 19 -12 10 7 -26
50 -32 40 -38 65 -15 65 5 0 25 -20 45 -44z m782 -44 c21 -16 49 -50 62 -75
13 -26 26 -47 28 -47 3 0 14 9 25 19 11 10 32 21 45 24 32 6 41 -27 20 -76
l-15 -36 44 -21 c71 -34 65 -60 -15 -73 l-35 -6 37 12 c47 15 54 23 38 42 -20
24 -82 37 -119 24 -38 -13 -36 -29 6 -49 47 -23 67 -78 53 -145 -10 -49 -9
-58 16 -116 32 -77 30 -128 -9 -213 -15 -32 -27 -75 -27 -95 0 -21 -7 -46 -15
-57 -9 -11 -12 -31 -9 -49 4 -25 -3 -39 -41 -82 -51 -59 -126 -100 -198 -109
-38 -5 -51 -12 -60 -31 -6 -13 -21 -26 -35 -30 -56 -14 -222 27 -313 78 -39
23 -57 54 -46 83 3 8 -3 22 -13 31 -10 9 -22 30 -25 47 -4 16 -25 48 -47 71
-37 38 -41 49 -48 112 -9 74 -7 85 15 85 7 0 16 8 18 18 4 13 5 12 6 -4 1 -13
26 -45 62 -78 139 -129 424 -216 623 -192 75 10 105 36 113 96 2 25 18 77 34
117 36 88 36 114 4 200 -23 59 -24 73 -15 116 12 57 12 58 1 75 -15 24 -61
-29 -60 -69 1 -50 -19 -181 -31 -193 -6 -6 -6 2 0 25 16 55 12 96 -14 134 -14
20 -26 41 -28 47 -7 20 -28 -2 -28 -28 0 -14 -10 -46 -21 -72 -13 -27 -21 -67
-22 -96 0 -44 -1 -47 -9 -24 -6 17 -5 41 1 64 8 28 7 41 -2 52 -7 8 -19 40
-27 71 -12 45 -20 57 -37 59 -18 3 -30 -8 -58 -52 -19 -31 -44 -60 -54 -65
-12 -7 -21 -27 -25 -53 -4 -24 -16 -59 -26 -78 -25 -46 -25 -37 1 30 14 38 19
68 15 95 -3 23 2 66 12 102 9 34 13 65 9 69 -3 3 -27 10 -52 15 -43 8 -48 7
-70 -19 -13 -15 -30 -43 -38 -62 -8 -19 -20 -46 -26 -60 -11 -24 -11 -24 -6 5
8 38 40 102 68 135 29 34 93 157 85 165 -13 14 -77 -25 -102 -62 -14 -21 -51
-59 -83 -84 -94 -74 -161 -189 -182 -312 -6 -37 -9 -43 -10 -21 -3 81 67 231
141 304 35 35 48 55 48 76 0 16 9 48 19 70 15 33 27 44 58 54 21 7 57 30 80
52 22 22 47 38 55 35 9 -4 8 -6 -4 -6 -10 -1 -28 -15 -40 -32 -13 -18 -46 -42
-76 -56 -56 -24 -82 -62 -82 -118 0 -39 16 -30 56 29 37 57 40 59 113 85 25 9
54 30 69 48 l24 33 -23 10 c-23 10 -23 10 3 5 15 -3 30 0 33 6 14 22 71 49
106 49 24 0 49 -10 75 -28z m-933 -49 c4 -3 0 -15 -10 -25 -21 -24 -9 -36 15
-15 53 48 99 -17 48 -67 -12 -13 -26 -30 -29 -38 -4 -7 -11 -21 -17 -30 -5
-10 -14 -26 -19 -35 -10 -23 -38 -28 -57 -12 -11 9 -13 23 -8 52 4 28 3 38 -5
33 -6 -4 -11 -18 -11 -32 0 -15 -6 -24 -15 -24 -24 0 -28 25 -10 59 17 35 44
39 85 16 34 -19 40 -18 40 5 0 11 6 20 14 20 8 0 16 7 20 15 7 19 -8 19 -38 0
-45 -30 -81 13 -50 60 16 24 34 32 47 18z m-79 -233 c35 -13 50 -44 34 -72 -7
-13 -13 -27 -14 -33 0 -5 -2 -15 -2 -22 -2 -8 -28 -3 -84 14 -99 30 -99 30
-91 49 4 11 14 13 34 9 24 -6 29 -3 29 13 0 43 42 62 94 42z m-50 -181 c-6
-33 -4 -41 7 -37 9 3 13 17 11 37 -2 26 1 32 15 29 25 -5 30 -64 7 -89 -26
-29 -78 -25 -103 7 -25 32 -26 43 -5 72 10 14 25 22 45 22 29 0 29 -1 23 -41z
m1603 -15 c8 -21 -13 -42 -28 -27 -13 13 -5 43 11 43 6 0 13 -7 17 -16z m153
-4 c0 -18 -7 -20 -64 -20 -63 0 -84 9 -71 30 3 6 35 10 71 10 57 0 64 -2 64
-20z m-100 -59 c0 -22 19 -31 66 -31 23 0 34 -5 34 -14 0 -23 -14 -26 -78 -20
l-61 7 4 36 c4 44 2 41 20 41 8 0 15 -9 15 -19z m-1616 -33 c19 -27 20 -49 4
-71 -19 -25 -44 -7 -29 21 7 14 8 23 1 27 -6 4 -15 -7 -21 -23 -12 -36 -33
-46 -60 -31 -16 8 -19 19 -17 47 2 25 8 37 18 37 10 0 14 -8 12 -27 -1 -16 2
-28 8 -28 5 0 10 7 10 16 0 51 47 71 74 32z m1685 -83 c8 -8 14 -28 14 -46 0
-43 -36 -73 -77 -65 -41 9 -59 29 -59 67 0 61 77 89 122 44z m-212 -231 c8
-20 -8 -36 -26 -25 -15 10 -8 41 9 41 6 0 13 -7 17 -16z m140 -68 c1 -1 -2 -8
-7 -16 -8 -12 -18 -10 -65 13 -49 24 -65 43 -50 59 4 4 80 -31 122 -56z m-122
-26 c6 -28 10 -30 52 -30 39 0 44 -2 33 -15 -7 -8 -25 -15 -41 -15 -33 0 -36
-7 -12 -25 15 -11 11 -35 -6 -35 -4 0 -40 23 -80 51 -59 41 -70 53 -61 65 11
12 16 11 39 -4 50 -35 52 -36 45 -8 -7 30 2 60 15 52 5 -4 12 -20 16 -36z
m-55 -115 c13 -14 32 -25 42 -25 23 0 24 -30 0 -37 -10 -2 -22 -14 -27 -26 -7
-16 -19 -22 -40 -22 -27 0 -30 3 -29 30 1 17 5 41 10 55 7 23 6 24 -9 11 -9
-7 -17 -20 -17 -27 0 -8 -7 -14 -15 -14 -22 0 -18 32 5 58 27 29 51 28 80 -3z
m-94 -131 c47 -13 53 -18 43 -31 -8 -9 -22 -12 -36 -9 -13 3 -35 9 -50 13
l-27 6 22 -30 c18 -26 20 -33 8 -42 -12 -10 -24 0 -65 55 -54 71 -58 79 -39
90 6 4 21 -5 35 -22 l23 -29 0 46 c0 25 6 51 13 58 10 10 13 2 15 -38 l3 -51
55 -16z"/>
<path d="M621 1726 c-9 -10 -9 -16 -1 -21 17 -10 37 12 24 25 -8 8 -15 6 -23
-4z"/>
<path d="M1235 1600 c-21 -23 -12 -39 13 -24 19 12 29 44 14 44 -5 0 -17 -9
-27 -20z"/>
<path d="M1294 1557 c-7 -20 -2 -47 11 -50 14 -3 19 43 6 56 -7 7 -12 6 -17
-6z"/>
<path d="M1180 1515 c-7 -9 -10 -18 -7 -21 10 -10 47 7 47 22 0 19 -24 18 -40
-1z"/>
<path d="M1350 1513 c0 -30 17 -50 31 -36 8 8 8 16 0 32 -14 26 -31 27 -31 4z"/>
<path d="M1316 1482 c-9 -15 6 -52 20 -52 15 0 18 18 8 44 -7 17 -20 21 -28 8z"/>
<path d="M1232 1454 c2 -15 9 -29 16 -32 10 -3 13 4 10 24 -2 15 -9 29 -16 32
-10 3 -13 -4 -10 -24z"/>
<path d="M1098 1445 c-6 -29 10 -45 23 -24 11 18 7 41 -7 46 -6 2 -14 -8 -16
-22z"/>
<path d="M1296 1412 c-7 -12 32 -48 41 -38 8 8 -8 38 -24 43 -6 2 -14 0 -17
-5z"/>
<path d="M1157 1403 c-13 -13 -7 -53 8 -53 10 0 15 10 15 30 0 29 -9 38 -23
23z"/>
<path d="M1375 1370 c-7 -11 21 -50 37 -50 15 0 8 27 -11 44 -13 12 -21 14
-26 6z"/>
<path d="M1253 1345 c-3 -9 -3 -18 -1 -21 7 -7 58 17 58 28 0 15 -50 8 -57 -7z"/>
<path d="M644 949 c-19 -31 158 -159 289 -209 148 -58 221 -73 352 -73 125 -1
175 10 175 39 0 14 -6 15 -37 8 -76 -18 -272 -9 -358 15 -122 34 -270 110
-342 175 -66 60 -68 62 -79 45z"/>
<path d="M780 605 c0 -33 51 -66 155 -101 96 -32 188 -42 210 -24 26 22 18 40
-18 40 -54 0 -186 37 -266 75 -40 19 -75 35 -77 35 -2 0 -4 -11 -4 -25z"/>
<path d="M352 1429 c1 -13 8 -23 13 -21 15 3 12 35 -3 40 -9 3 -13 -3 -10 -19z"/>
<path d="M260 1320 c0 -23 32 -43 54 -34 21 8 21 40 0 48 -31 12 -54 6 -54
-14z"/>
<path d="M226 1191 c-4 -5 -3 -17 0 -26 5 -13 8 -14 15 -3 5 7 9 19 9 26 0 14
-16 16 -24 3z"/>
<path d="M1917 973 c-16 -15 -6 -43 17 -49 30 -7 46 1 46 26 0 24 -46 41 -63
23z"/>
<path d="M1726 504 c-4 -10 -2 -22 3 -27 7 -7 13 -5 17 7 4 10 2 22 -3 27 -7
7 -13 5 -17 -7z"/>
<path d="M1867 824 c-9 -10 2 -24 19 -24 8 0 14 7 14 15 0 15 -21 21 -33 9z"/>
<path d="M1974 794 c-4 -10 -9 -22 -11 -26 -2 -4 1 -9 6 -13 15 -9 35 35 22
48 -7 7 -12 5 -17 -9z"/>
</g>
</svg>
